<?xml version="1.0" standalone="no"?>
<!DOCTYPE svg PUBLIC "-//W3C//DTD SVG 20010904//EN"
 "http://www.w3.org/TR/2001/REC-SVG-20010904/DTD/svg10.dtd">
<svg version="1.0" xmlns="http://www.w3.org/2000/svg"
 width="260.000000pt" height="260.000000pt" viewBox="0 0 260.000000 260.000000"
 preserveAspectRatio="xMidYMid meet">
<metadata>
Created by potrace 1.11, written by Peter Selinger 2001-2013
</metadata>
<g transform="translate(0.000000,260.000000) scale(0.100000,-0.100000)"
fill="#000000" stroke="none">
<path d="M464 2190 c-86 -18 -183 -79 -236 -148 l-28 -35 0 81 0 82 -99 0 -99
0 0 -885 1 -885 108 0 109 0 0 308 0 308 47 -43 c25 -24 76 -58 112 -76 62
-30 72 -31 176 -31 91 0 120 4 170 24 160 62 263 165 328 330 81 205 72 490
-22 685 -63 133 -159 221 -288 266 -65 24 -213 33 -279 19z m208 -190 c107
-50 187 -175 206 -320 11 -85 7 -269 -8 -330 -32 -136 -119 -249 -222 -288
-78 -30 -177 -24 -247 14 -140 76 -205 229 -200 474 5 242 107 419 270 469 48
15 150 5 201 -19z"/>
<path d="M1932 2185 c-74 -21 -131 -56 -191 -120 l-51 -54 0 80 0 79 -100 0
-100 0 0 -885 0 -885 110 0 110 0 0 306 0 306 39 -35 c94 -85 201 -123 325
-114 45 3 100 13 124 21 270 97 407 333 398 686 -2 69 -6 132 -10 140 -3 8 -7
26 -10 40 -7 45 -44 144 -70 191 -60 106 -160 190 -274 231 -77 26 -228 33
-300 13z m228 -183 c103 -50 181 -164 205 -299 4 -21 8 -87 10 -148 5 -270
-76 -433 -248 -496 -169 -62 -347 41 -409 236 -19 60 -22 93 -23 225 0 133 3
165 22 226 40 126 124 225 225 265 59 24 159 20 218 -9z"/>
</g>
</svg>
